<?xml version="1.0" encoding="utf-8"?>
<!-- Generator: Adobe Illustrator 23.0.3, SVG Export Plug-In . SVG Version: 6.00 Build 0)  -->
<svg version="1.1" id="Слой_1" xmlns="http://www.w3.org/2000/svg" xmlns:xlink="http://www.w3.org/1999/xlink" x="0px" y="0px"
	 viewBox="0 0 100 125" style="enable-background:new 0 0 100 125;" xml:space="preserve">
<title>4</title>
<path d="M61.4,8.7c-10.9,0-20.7,4.1-26.8,10.5c1.3-0.1,2.6-0.2,4-0.2c21.3,0,38.6,14.1,38.6,31.5c0,4-0.9,7.9-2.7,11.5l19,13.9
	l-4.7-25.4c3.9-4.1,6.1-9.6,6.2-15.3C95,20.6,80,8.7,61.4,8.7z"/>
<path d="M38.6,24.1C20,24.1,5,35.9,5,50.6c0.1,5.7,2.3,11.1,6.2,15.3L6.5,91.3l21.4-15.6C31.4,76.6,35,77,38.6,77
	c18.5,0,33.6-11.8,33.6-26.5C72.2,35.9,57.1,24.1,38.6,24.1z M41.9,59.1H21.8c-1.4,0-2.5-1.1-2.5-2.5c0-1.4,1.1-2.5,2.5-2.5
	c0,0,0,0,0,0h20.2c1.4,0,2.5,1.1,2.5,2.5C44.5,57.9,43.3,59.1,41.9,59.1C41.9,59.1,41.9,59.1,41.9,59.1z M55.4,47.1H21.8
	c-1.4,0-2.5-1.1-2.5-2.5c0-1.4,1.1-2.5,2.5-2.5c0,0,0,0,0,0h33.6c1.4,0,2.5,1.1,2.5,2.5C57.9,45.9,56.8,47.1,55.4,47.1z"/>
</svg>
