<?xml version="1.0" encoding="utf-8"?>
<!-- Generator: Adobe Illustrator 23.0.3, SVG Export Plug-In . SVG Version: 6.00 Build 0)  -->
<svg version="1.1" id="Слой_1" xmlns="http://www.w3.org/2000/svg" xmlns:xlink="http://www.w3.org/1999/xlink" x="0px" y="0px"
	 viewBox="0 0 41 55" style="enable-background:new 0 0 41 55;" xml:space="preserve">
<style type="text/css">
	.st0{fill-rule:evenodd;clip-rule:evenodd;}
</style>
<title>exit</title>
<desc>Created with Sketch.</desc>
<g>
	<g transform="translate(-786.000000, -306.000000)">
		<g transform="translate(782.000000, 303.000000)">
			<g transform="translate(4.000000, 3.000000)">
				<path class="st0" d="M2,0L2,0c1.1,0,2,0.9,2,2v40c0,1.1-0.9,2-2,2l0,0c-1.1,0-2-0.9-2-2V2C0,0.9,0.9,0,2,0z"/>
				<path class="st0" d="M2,4C0.9,4,0,3.1,0,2c0-1.1,0.9-2,2-2h20c1.1,0,2,0.9,2,2c0,1.1-0.9,2-2,2H2z"/>
				<path class="st0" d="M0,42L0,42c0-1.1,0.9-2,2-2h20c1.1,0,2,0.9,2,2l0,0c0,1.1-0.9,2-2,2H2C0.9,44,0,43.1,0,42z"/>
				<path class="st0" d="M11,24c-1.1,0-2-0.9-2-2c0-1.1,0.9-2,2-2h25c1.1,0,2,0.9,2,2c0,1.1-0.9,2-2,2H11z"/>
				<path class="st0" d="M40.3,23.4l-9.9,9.9c-0.8,0.8-2,0.8-2.8,0c-0.8-0.8-0.8-2,0-2.8l8.5-8.5l-8.5-8.5c-0.8-0.8-0.8-2,0-2.8
					s2-0.8,2.8,0l9.9,9.9C41.1,21.4,41.1,22.6,40.3,23.4z"/>
			</g>
		</g>
	</g>
</g>
</svg>
