<?xml version="1.0" encoding="utf-8"?>
<!-- Generator: Adobe Illustrator 23.0.3, SVG Export Plug-In . SVG Version: 6.00 Build 0)  -->
<svg version="1.1" id="Слой_1" xmlns="http://www.w3.org/2000/svg" xmlns:xlink="http://www.w3.org/1999/xlink" x="0px" y="0px"
	 viewBox="0 0 100 125" style="enable-background:new 0 0 100 125;" xml:space="preserve">
<title>B___43</title>
<path d="M50,61.2c6.2,0,11.3-5,11.3-11.3c0-6.2-5-11.3-11.3-11.3c-1.4,0-2.8,0.3-4.1,0.8c2.8,0.3,4.8,2.8,4.5,5.5
	c-0.3,2.8-2.8,4.8-5.5,4.5c-2.6-0.3-4.6-2.4-4.6-5c0-0.1,0-0.3,0-0.4c-3.2,5.3-1.5,12.2,3.8,15.5C45.9,60.6,47.9,61.2,50,61.2z"/>
<path d="M50,74.1C74.8,74.1,95,50,95,50S74.8,25.9,50,25.9S5,50,5,50S25.1,74.1,50,74.1z M50,33.7c9,0,16.3,7.3,16.3,16.3
	c0,9-7.3,16.3-16.3,16.3c-9,0-16.3-7.3-16.3-16.3c0,0,0,0,0,0C33.7,41,41,33.7,50,33.7L50,33.7z"/>
</svg>
