<?xml version="1.0" encoding="utf-8"?>
<!-- Generator: Adobe Illustrator 23.0.3, SVG Export Plug-In . SVG Version: 6.00 Build 0)  -->
<svg version="1.1" id="Слой_1" xmlns="http://www.w3.org/2000/svg" xmlns:xlink="http://www.w3.org/1999/xlink" x="0px" y="0px"
	 viewBox="0 0 32 40" style="enable-background:new 0 0 32 40;" xml:space="preserve">
<title>ui-icon-pack-solid-home 1-</title>
<g>
	<path d="M30.6,14.2l-14-12c-0.4-0.3-0.9-0.3-1.3,0l-14,12c-0.4,0.4-0.5,1-0.1,1.4c0.4,0.4,1,0.5,1.4,0.1L3,15.5V30c0,0.6,0.4,1,1,1
		h9v-7c0-1.7,1.3-3,3-3s3,1.3,3,3v7h9c0.6,0,1-0.4,1-1V15.5l0.4,0.3c0.4,0.4,1.1,0.3,1.4-0.1S31.1,14.6,30.6,14.2z"/>
</g>
</svg>
