<?xml version="1.0" encoding="utf-8"?>
<!-- Generator: Adobe Illustrator 23.0.3, SVG Export Plug-In . SVG Version: 6.00 Build 0)  -->
<svg version="1.1" id="Слой_1" xmlns="http://www.w3.org/2000/svg" xmlns:xlink="http://www.w3.org/1999/xlink" x="0px" y="0px"
	 viewBox="0 0 100 125" style="enable-background:new 0 0 100 125;" xml:space="preserve">
<path d="M71.3,64.4l26.5,26.5c1.8,2.1,1.5,5.2-0.6,6.9c-1.9,1.6-4.6,1.5-6.4,0L64.4,71.3C47.3,84.6,22.6,81.5,9.2,64.4
	S-1,22.6,16.2,9.2S58-1,71.3,16.2C82.4,30.4,82.4,50.2,71.3,64.4L71.3,64.4z M40.3,69.8c16.3,0,29.5-13.2,29.5-29.5
	S56.6,10.8,40.3,10.8S10.8,24,10.8,40.3S24,69.8,40.3,69.8z"/>
</svg>
